<svg xmlns="http://www.w3.org/2000/svg" width="1024" height="1024" viewBox="0 0 1024 1024">
<g>
<path d="M 507.44 731.32 C500.87,731.59 494.15,732.06 492.50,732.35 C487.14,733.30 464.35,729.04 464.75,727.16 C464.98,726.10 464.46,725.90 460.75,725.60 C460.06,725.54 458.96,725.00 458.31,724.38 C457.65,723.77 455.85,723.45 454.31,723.68 C452.76,723.92 451.05,724.16 450.50,724.22 C448.94,724.40 432.74,718.85 430.42,717.34 C429.28,716.60 428.10,716.23 427.81,716.52 C427.52,716.81 421.26,713.99 413.89,710.26 C348.33,677.03 304.87,616.74 293.39,543.10 C292.25,535.80 291.73,526.13 291.73,512.00 C291.73,489.37 293.08,477.76 298.05,457.50 C311.44,402.88 349.93,350.96 398.00,322.67 C433.86,301.56 472.23,291.00 513.05,291.00 C519.66,291.00 525.15,291.43 525.48,291.97 C525.82,292.52 527.99,292.69 530.39,292.36 C536.44,291.53 550.07,293.48 566.80,297.56 C592.16,303.75 613.11,312.94 634.95,327.47 C649.47,337.12 654.62,341.29 666.34,352.82 C684.50,370.68 703.07,394.93 700.75,397.77 C699.97,398.73 700.12,398.89 701.36,398.42 C702.27,398.07 703.00,398.28 703.00,398.89 C703.00,399.50 702.66,399.91 702.25,399.80 C700.49,399.34 697.00,401.26 697.00,402.69 C697.00,403.94 697.29,404.01 698.46,403.04 C699.26,402.37 700.38,402.12 700.96,402.47 C701.53,402.83 702.00,402.64 702.00,402.05 C702.00,401.35 702.67,401.40 703.96,402.21 C708.87,405.27 722.81,438.21 726.46,455.37 C726.71,456.54 727.57,459.89 728.38,462.81 C730.81,471.58 733.38,491.83 732.25,493.25 C730.91,494.94 729.80,531.36 730.93,537.00 C731.97,542.24 730.58,552.07 726.53,568.00 C722.35,584.45 719.40,592.31 710.96,609.50 C698.85,634.17 687.50,650.23 668.77,669.17 C654.95,683.15 629.67,702.08 625.27,701.75 C624.10,701.66 623.41,701.15 623.73,700.62 C624.08,700.06 623.59,699.94 622.55,700.34 C621.30,700.82 620.93,700.62 621.30,699.67 C621.58,698.93 621.45,697.72 621.00,697.00 C620.41,696.04 623.04,693.76 630.41,688.83 C642.69,680.62 648.36,675.91 661.38,663.17 C689.36,635.77 707.79,603.75 717.89,565.00 C723.66,542.84 724.41,536.58 724.67,508.50 C724.81,494.20 725.14,480.25 725.42,477.50 C725.78,473.96 725.67,473.23 725.06,475.00 C724.59,476.38 724.15,476.91 724.10,476.19 C724.04,475.47 723.56,475.15 723.03,475.48 C722.50,475.81 721.78,474.83 721.44,473.29 C716.24,449.72 712.15,437.40 703.58,419.50 C690.35,391.85 675.36,372.47 650.00,350.21 C634.48,336.58 610.57,322.20 591.26,314.87 C587.69,313.52 584.77,311.75 584.44,310.75 C584.12,309.79 583.02,309.00 581.99,309.00 C580.96,309.00 579.86,308.59 579.55,308.08 C579.24,307.58 577.30,307.31 575.24,307.49 C570.44,307.89 561.83,306.07 560.39,304.34 C559.78,303.60 558.53,303.00 557.60,303.00 C556.68,303.00 554.93,302.35 553.71,301.55 C550.93,299.73 542.41,298.24 543.34,299.74 C544.42,301.49 541.87,301.77 534.00,300.77 C527.35,299.92 489.88,300.22 486.00,301.14 C485.17,301.34 484.62,300.92 484.77,300.19 C484.98,299.17 483.95,299.03 480.27,299.56 C477.65,299.94 475.05,300.58 474.50,300.97 C473.95,301.37 471.36,302.27 468.75,302.97 C466.14,303.68 464.00,304.60 464.00,305.01 C464.00,305.70 453.08,308.88 448.50,309.52 C447.40,309.68 443.58,311.02 440.00,312.50 C427.45,317.71 426.40,318.12 424.81,318.35 C423.93,318.48 422.59,319.08 421.85,319.68 C420.36,320.88 410.38,326.00 409.53,326.00 C409.24,326.00 409.11,325.44 409.25,324.75 C409.39,324.06 408.72,323.56 407.76,323.64 C406.80,323.71 406.27,323.38 406.57,322.89 C407.50,321.39 405.32,321.91 404.00,323.50 C403.32,324.33 403.05,325.00 403.41,325.00 C403.77,325.00 403.56,325.95 402.94,327.12 C402.15,328.58 402.14,329.03 402.89,328.57 C403.57,328.15 403.75,328.48 403.38,329.45 C403.05,330.30 402.38,331.00 401.88,331.00 C399.02,331.00 371.44,352.76 362.40,362.16 C334.03,391.64 315.87,423.88 306.97,460.57 C305.24,467.68 302.97,475.14 301.91,477.14 C300.68,479.49 300.02,482.68 300.06,486.14 C300.46,518.94 300.37,528.00 299.65,528.00 C299.18,528.00 298.96,531.71 299.16,536.25 C299.44,542.66 299.95,545.00 301.47,546.74 C304.21,549.87 309.04,570.74 307.72,573.69 C306.62,576.13 307.46,579.45 308.95,578.53 C310.17,577.78 312.42,581.33 314.00,586.50 C316.62,595.06 328.26,617.60 336.34,629.75 C346.60,645.18 357.33,657.58 371.11,669.95 C381.69,679.45 387.55,683.86 400.88,692.36 C409.06,697.57 430.73,709.00 432.45,709.00 C434.92,709.02 445.47,714.06 445.21,715.10 C445.02,715.84 445.87,716.07 447.59,715.74 C449.06,715.46 455.04,716.45 460.88,717.94 C481.94,723.33 498.76,724.95 528.78,724.46 C546.81,724.17 549.41,723.91 552.28,722.17 C554.05,721.09 559.78,719.19 565.00,717.95 C572.97,716.06 596.36,708.10 599.40,706.24 C599.90,705.94 599.99,706.21 599.60,706.85 C599.13,707.60 599.75,708.00 601.41,708.00 C603.67,708.00 606.64,704.97 605.49,703.83 C605.25,703.59 607.52,702.18 610.53,700.71 C613.54,699.23 616.00,698.41 616.00,698.89 C616.00,699.37 616.90,700.00 618.01,700.29 C619.48,700.68 619.90,701.44 619.58,703.16 C619.34,704.45 619.12,705.77 619.07,706.10 C618.93,707.28 592.94,719.08 584.17,721.94 C577.12,724.25 573.99,724.77 569.50,724.41 C564.38,723.99 563.56,724.20 561.64,726.39 C559.84,728.45 557.53,729.17 547.01,730.94 C536.25,732.75 533.47,732.89 526.94,731.93 C522.78,731.32 514.00,731.05 507.44,731.32 ZM 541.71 646.94 C537.56,648.80 535.25,649.07 524.46,648.94 L 512.00 648.79 L 512.00 596.77 L 525.25 597.19 C536.12,597.53 539.31,597.99 543.00,599.74 C553.15,604.55 557.53,611.61 557.44,623.00 C557.35,634.50 552.29,642.20 541.71,646.94 ZM 588.52 648.00 C581.77,648.00 574.91,648.27 573.26,648.60 L 570.28 649.19 L 569.77 623.85 C569.49,609.91 569.45,598.16 569.69,597.75 C569.92,597.34 578.55,597.00 588.85,597.00 L 607.57 597.00 L 607.79 599.87 C608.00,602.60 606.20,605.25 604.36,604.92 C603.88,604.83 597.76,604.82 590.75,604.88 L 578.00 605.00 L 578.00 618.94 L 591.25 619.22 L 604.50 619.50 L 604.50 626.50 L 591.25 626.78 L 578.00 627.06 L 578.00 634.10 C578.00,641.55 579.42,644.61 582.09,642.92 C582.86,642.43 586.88,642.04 591.00,642.05 C599.03,642.06 602.51,643.51 601.41,646.37 C600.88,647.75 598.93,648.00 588.52,648.00 ZM 519.42 626.00 C519.37,637.55 519.45,647.00 519.59,647.00 C521.39,647.00 523.00,645.30 523.00,643.39 C523.00,641.14 523.34,641.00 528.88,641.00 C542.54,641.00 550.19,632.73 548.64,619.64 C547.47,609.74 540.32,605.00 526.57,605.00 L 519.50 605.01 ZM 642.51 649.00 C641.77,649.00 640.56,649.20 639.83,649.44 C636.50,650.53 634.38,648.09 631.10,639.36 C629.27,634.49 624.67,623.22 620.88,614.32 C617.10,605.41 614.00,597.88 614.00,597.57 C614.00,597.25 616.16,597.00 618.79,597.00 L 623.58 597.00 L 626.88 606.25 C628.70,611.34 631.20,617.75 632.44,620.50 C633.68,623.25 635.71,628.08 636.96,631.24 C638.20,634.40 639.62,636.73 640.11,636.43 C640.60,636.13 641.00,635.47 641.00,634.97 C641.00,633.80 651.39,606.84 653.99,601.25 C655.89,597.17 656.15,597.00 660.49,597.00 C662.97,597.00 665.00,597.13 665.00,597.28 C665.00,597.43 663.39,601.37 661.41,606.03 C655.26,620.55 647.96,638.27 645.86,643.75 C644.76,646.64 643.25,649.00 642.51,649.00 ZM 605.50 415.21 C572.98,415.20 559.06,415.52 558.00,416.32 C557.17,416.93 557.49,416.33 558.69,414.97 L 560.88 412.50 L 608.19 412.50 C643.65,412.50 656.00,412.81 657.50,413.72 C657.60,413.78 657.70,413.84 657.80,413.90 C658.21,414.14 658.55,414.34 658.53,414.50 C658.46,415.23 651.27,415.23 611.92,415.21 C609.87,415.21 607.73,415.21 605.50,415.21 ZM 440.17 571.05 C439.25,572.67 438.16,573.99 437.75,573.99 C437.34,574.00 437.00,546.03 437.00,511.83 C437.00,477.64 437.30,449.97 437.67,450.34 C438.04,450.71 438.52,466.64 438.73,485.75 C439.43,548.55 439.93,567.48 440.90,567.80 C441.42,567.97 441.09,569.44 440.17,571.05 ZM 626.29 494.53 C610.52,494.33 603.95,494.57 603.62,495.37 C603.37,495.99 603.12,495.49 603.08,494.25 L 603.00 492.00 L 624.75 492.07 C636.93,492.11 645.62,492.50 644.50,492.95 C642.73,493.67 642.84,493.82 645.50,494.29 C647.15,494.57 638.51,494.68 626.29,494.53 ZM 700.36 476.36 C699.68,481.38 698.59,482.33 697.63,478.75 C696.71,475.30 696.89,458.19 697.85,457.59 C700.37,456.03 701.75,466.28 700.36,476.36 ZM 677.66 568.91 C668.04,569.43 666.61,569.75 665.01,571.73 C663.08,574.12 662.46,573.80 660.03,569.13 C659.13,567.40 659.12,566.95 659.97,567.48 C660.62,567.88 667.30,568.23 674.82,568.26 L 688.50 568.32 ZM 470.53 414.95 C469.88,416.01 458.73,416.17 457.14,415.13 C455.22,413.88 456.97,413.03 462.96,412.32 C467.75,411.75 471.67,413.11 470.53,414.95 ZM 700.71 568.79 C700.82,570.22 700.22,570.75 698.54,570.75 C697.26,570.75 695.60,570.36 694.86,569.89 C694.11,569.42 692.38,568.99 691.00,568.93 C688.54,568.83 688.55,568.81 691.31,567.98 C692.86,567.52 694.75,566.63 695.50,566.00 C697.33,564.48 700.51,566.19 700.71,568.79 ZM 426.00 414.24 C426.00,415.71 425.12,415.99 420.75,415.92 C417.86,415.88 416.07,415.61 416.76,415.34 C417.45,415.06 417.79,414.46 417.51,414.02 C417.23,413.57 419.03,413.04 421.50,412.84 C425.26,412.54 426.00,412.77 426.00,414.24 ZM 402.00 415.12 C402.00,415.60 400.20,416.00 398.00,416.00 C394.60,416.00 394.00,415.68 394.00,413.89 C394.00,412.27 394.40,411.96 395.75,412.52 C396.71,412.93 398.51,413.48 399.75,413.75 C400.99,414.01 402.00,414.63 402.00,415.12 ZM 320.18 541.25 C319.95,542.21 319.40,543.00 318.95,543.00 C317.37,543.00 316.95,539.20 318.22,536.42 L 319.50 533.61 L 320.05 536.55 C320.35,538.17 320.41,540.29 320.18,541.25 ZM 663.59 449.38 C663.90,450.19 664.01,451.82 663.83,453.01 C663.52,455.02 663.31,454.94 660.50,451.83 C658.85,450.01 657.90,448.83 658.38,449.22 C658.87,449.61 660.11,449.48 661.15,448.92 C662.56,448.16 663.17,448.28 663.59,449.38 ZM 663.77 484.48 C664.00,487.31 663.19,488.00 660.70,487.09 C659.04,486.49 659.09,486.27 661.24,484.25 L 663.57 482.06 ZM 551.44 430.09 C551.14,430.59 549.99,431.00 548.91,431.00 C547.26,431.00 547.10,430.68 547.97,429.06 C548.54,427.99 549.41,426.86 549.90,426.56 C550.97,425.90 552.24,428.80 551.44,430.09 ZM 647.60 545.27 C647.99,545.66 647.90,546.92 647.38,548.07 C646.46,550.15 646.44,550.15 644.66,548.18 C643.49,546.89 643.24,545.97 643.93,545.54 C644.52,545.18 645.01,545.47 645.02,546.19 C645.03,547.16 645.27,547.11 645.96,546.03 C646.47,545.22 647.21,544.88 647.60,545.27 ZM 327.99 555.98 C329.40,558.62 329.01,558.51 326.10,555.43 C324.29,553.52 323.98,552.62 324.85,551.75 C325.72,550.88 326.00,550.91 326.00,551.86 C326.00,552.56 326.52,552.80 327.15,552.40 C327.86,551.97 328.04,552.13 327.61,552.82 C327.22,553.45 327.39,554.87 327.99,555.98 ZM 640.00 538.56 C640.00,541.48 639.80,541.54 637.65,539.17 C635.53,536.82 635.57,536.46 638.00,536.27 C639.49,536.16 640.00,536.74 640.00,538.56 ZM 608.92 521.60 C607.42,523.40 605.00,523.41 605.00,521.61 C605.00,520.01 606.89,519.08 608.79,519.74 C609.78,520.09 609.81,520.52 608.92,521.60 ZM 348.74 570.95 C348.09,571.80 347.52,572.61 347.46,572.74 C347.40,572.87 346.49,572.32 345.43,571.52 C343.28,569.90 343.36,569.81 347.20,569.58 C349.49,569.43 349.73,569.65 348.74,570.95 ZM 395.00 570.50 C395.00,571.33 394.37,572.00 393.61,572.00 C392.84,572.00 391.95,571.33 391.64,570.50 C391.25,569.48 391.69,569.00 393.03,569.00 C394.11,569.00 395.00,569.67 395.00,570.50 ZM 412.50 415.00 C412.86,415.58 411.82,416.00 410.00,416.00 C408.18,416.00 407.14,415.58 407.50,415.00 C407.84,414.45 408.96,414.00 410.00,414.00 C411.04,414.00 412.16,414.45 412.50,415.00 ZM 593.00 569.50 C593.00,570.33 592.61,571.00 592.12,571.00 C591.64,571.00 590.68,570.33 590.00,569.50 C588.96,568.25 589.10,568.00 590.88,568.00 C592.10,568.00 593.00,568.64 593.00,569.50 ZM 543.57 437.03 C543.57,438.09 542.99,439.17 542.29,439.44 C541.58,439.72 541.00,439.33 541.00,438.59 C541.00,437.85 541.58,436.76 542.29,436.18 C543.26,435.37 543.57,435.58 543.57,437.03 Z" fill="rgb(62,62,62)"/>
<path d="M 440.17 571.05 C441.09,569.44 441.42,567.97 440.90,567.80 C439.93,567.48 439.43,548.55 438.73,485.75 C438.52,466.64 438.04,450.71 437.67,450.34 C437.34,450.00 437.06,472.75 437.01,502.51 L 437.01 492.50 L 437.04 411.00 L 467.81 411.00 L 469.39 412.90 C467.98,412.28 465.60,412.01 462.96,412.32 C456.97,413.03 455.22,413.88 457.14,415.13 C458.73,416.17 469.88,416.01 470.53,414.95 C470.63,414.79 470.69,414.64 470.72,414.49 L 471.77 415.75 C473.94,418.36 481.18,427.70 487.85,436.50 C494.53,445.30 500.71,453.40 501.60,454.50 C502.48,455.60 505.73,459.82 508.82,463.88 L 514.44 471.26 L 518.34 466.88 C520.49,464.47 528.25,454.54 535.58,444.80 C542.92,435.07 551.41,423.85 554.46,419.88 C557.51,415.90 560.00,412.26 560.00,411.77 C560.00,410.53 647.92,411.51 656.28,412.85 C673.19,415.55 688.65,428.02 696.16,445.00 C698.35,449.96 699.75,455.52 700.37,461.31 C699.84,458.48 698.96,456.91 697.85,457.59 C696.89,458.19 696.71,475.30 697.63,478.75 C698.41,481.65 699.27,481.58 699.93,478.77 C698.96,485.09 697.11,491.26 694.38,496.83 C690.70,504.36 680.21,514.66 672.22,518.60 L 665.94 521.69 L 677.13 536.60 C693.15,557.94 701.01,568.20 703.15,570.57 C704.18,571.71 704.71,572.95 704.34,573.32 C703.97,573.70 694.53,574.00 683.37,574.00 L 663.08 574.00 L 648.75 554.75 C640.87,544.16 632.90,533.36 631.04,530.75 L 627.66 526.00 L 616.83 525.88 C610.87,525.81 605.44,525.69 604.75,525.62 C603.82,525.53 603.43,521.25 603.23,508.75 L 602.95 492.00 L 603.00 492.00 L 625.23 491.96 C649.13,491.91 652.13,491.43 658.40,486.64 C669.14,478.45 669.11,458.28 658.35,450.42 C652.77,446.35 649.80,446.00 620.86,446.00 L 593.01 446.00 L 592.76 509.75 L 592.52 568.52 C592.14,568.20 591.56,568.00 590.88,568.00 C589.10,568.00 588.96,568.25 590.00,569.50 C590.68,570.33 591.64,571.00 592.12,571.00 C592.26,571.00 592.39,570.94 592.51,570.84 L 592.50 573.50 L 559.00 574.05 L 559.00 522.52 C559.00,494.19 558.62,471.00 558.15,471.00 C557.68,471.00 551.53,478.54 544.47,487.75 C537.42,496.96 530.18,506.34 528.38,508.60 C526.58,510.85 523.45,514.90 521.42,517.60 C518.08,522.02 516.54,524.39 514.91,524.45 C513.29,524.52 511.57,522.33 507.90,517.64 C507.43,517.05 506.94,516.42 506.41,515.75 C502.06,510.23 496.10,502.51 493.17,498.61 C483.28,485.43 471.58,471.00 470.79,471.00 C470.35,471.00 470.00,494.17 470.00,522.50 L 470.00 574.00 L 436.98 574.00 L 437.00 516.35 C437.03,548.46 437.36,574.00 437.75,573.99 C438.16,573.99 439.25,572.67 440.17,571.05 ZM 348.74 570.95 C349.73,569.65 349.49,569.43 347.20,569.58 C343.43,569.81 343.29,569.90 345.31,571.43 C339.50,568.56 334.21,564.69 329.69,559.98 C320.36,550.25 315.02,538.79 313.50,525.25 L 312.80 519.00 L 348.00 519.00 L 348.00 522.30 C348.00,526.93 352.44,535.34 356.53,538.46 C364.16,544.28 372.36,545.38 379.78,541.59 C385.64,538.60 389.28,534.83 391.92,529.00 C393.89,524.65 393.96,522.68 393.98,468.25 L 394.00 412.00 L 404.35 412.00 C410.05,412.00 417.47,411.71 420.85,411.36 L 427.00 410.72 L 427.00 469.58 C427.00,521.05 427.00,530.88 423.75,539.49 C422.97,541.55 422.01,543.53 420.81,546.00 C418.65,550.48 415.32,554.84 410.09,560.03 C404.87,565.22 399.87,568.97 394.48,571.67 C394.80,571.39 395.00,570.97 395.00,570.50 C395.00,569.67 394.11,569.00 393.03,569.00 C391.69,569.00 391.25,569.48 391.64,570.50 C391.95,571.33 392.84,572.00 393.61,572.00 C393.69,572.00 393.77,571.99 393.85,571.98 C390.85,573.42 387.72,574.55 384.36,575.42 C376.83,577.36 363.40,577.36 356.00,575.43 C353.12,574.68 350.31,573.70 347.61,572.51 C347.83,572.18 348.26,571.58 348.74,570.95 ZM 605.50 415.21 C607.73,415.21 609.87,415.21 611.92,415.21 L 611.92 415.21 C651.27,415.23 658.46,415.23 658.53,414.50 C658.55,414.34 658.21,414.14 657.80,413.90 C657.70,413.84 657.60,413.78 657.50,413.72 C656.00,412.81 643.65,412.50 608.19,412.50 L 560.88 412.50 L 558.69 414.97 C557.49,416.33 557.17,416.93 558.00,416.32 C559.06,415.52 572.98,415.20 605.50,415.21 ZM 588.52 648.00 C598.93,648.00 600.88,647.75 601.41,646.37 C602.51,643.51 599.03,642.06 591.00,642.05 C586.88,642.04 582.86,642.43 582.09,642.92 C580.51,643.92 579.37,643.26 578.70,641.00 L 608.00 641.00 L 608.00 649.00 L 571.25 649.00 L 573.26 648.60 C574.91,648.27 581.77,648.00 588.52,648.00 ZM 730.58 548.92 C731.36,543.60 731.46,539.69 730.93,537.00 C729.80,531.36 730.91,494.94 732.25,493.25 C733.23,492.02 731.43,476.66 729.35,466.88 C733.79,486.85 734.88,520.18 731.63,542.50 C731.33,544.52 730.98,546.68 730.58,548.92 ZM 603.00 492.00 L 603.08 494.25 C603.12,495.49 603.37,495.99 603.62,495.37 C603.95,494.57 610.52,494.33 626.29,494.53 C638.51,494.68 647.15,494.57 645.50,494.29 C642.84,493.82 642.73,493.67 644.50,492.95 C645.62,492.50 636.93,492.11 624.75,492.07 L 603.00 492.00 ZM 305.72 558.62 C304.39,553.23 302.71,548.16 301.47,546.74 C299.95,545.00 299.44,542.66 299.16,536.25 C298.96,531.71 299.18,528.00 299.65,528.00 C300.37,528.00 300.46,518.94 300.06,486.14 C300.02,482.68 300.68,479.49 301.91,477.14 C302.64,475.76 303.95,471.78 305.26,467.11 C301.44,483.27 300.70,491.57 300.65,511.00 C300.60,532.41 301.31,539.43 305.72,558.62 ZM 611.21 324.05 C588.01,311.99 562.29,304.06 535.00,300.93 C533.76,300.79 532.49,300.66 531.21,300.55 C532.40,300.61 533.35,300.68 534.00,300.77 C541.87,301.77 544.42,301.49 543.34,299.74 C542.41,298.24 550.93,299.73 553.71,301.55 C554.93,302.35 556.68,303.00 557.60,303.00 C558.53,303.00 559.78,303.60 560.39,304.34 C561.83,306.07 570.44,307.89 575.24,307.49 C577.30,307.31 579.24,307.58 579.55,308.08 C579.86,308.59 580.96,309.00 581.99,309.00 C583.02,309.00 584.12,309.79 584.44,310.75 C584.77,311.75 587.69,313.52 591.26,314.87 C597.57,317.27 604.37,320.42 611.21,324.05 ZM 618.63 706.53 C618.91,706.33 619.06,706.19 619.07,706.10 C619.12,705.77 619.34,704.45 619.58,703.16 C619.90,701.44 619.48,700.68 618.01,700.29 C616.90,700.00 616.00,699.37 616.00,698.89 C616.00,698.41 613.54,699.23 610.53,700.71 C607.52,702.18 605.25,703.59 605.49,703.83 C606.64,704.97 603.67,708.00 601.41,708.00 C599.75,708.00 599.13,707.60 599.60,706.85 C599.99,706.21 599.90,705.94 599.40,706.24 C598.10,707.04 593.10,708.94 587.18,711.01 C612.43,701.13 633.26,688.66 652.34,671.80 C644.90,678.64 639.44,682.79 630.41,688.83 C623.04,693.76 620.41,696.04 621.00,697.00 C621.45,697.72 621.58,698.93 621.30,699.67 C620.93,700.62 621.30,700.82 622.55,700.34 C623.59,699.94 624.08,700.06 623.73,700.62 C623.41,701.15 624.10,701.66 625.27,701.75 C626.04,701.80 627.47,701.27 629.36,700.26 C625.86,702.44 622.28,704.53 618.63,706.53 ZM 507.44 731.32 C514.00,731.05 522.78,731.32 526.94,731.93 C529.85,732.36 532.01,732.56 534.46,732.51 C520.88,733.63 503.43,733.80 491.50,732.73 C490.62,732.65 489.70,732.55 488.73,732.43 C490.33,732.52 491.64,732.50 492.50,732.35 C494.15,732.06 500.87,731.59 507.44,731.32 ZM 501.54 300.39 C487.18,301.33 472.27,303.64 458.50,307.19 C457.86,307.35 457.22,307.52 456.58,307.68 C460.47,306.60 464.00,305.40 464.00,305.01 C464.00,304.60 466.14,303.68 468.75,302.97 C471.36,302.27 473.95,301.37 474.50,300.97 C475.05,300.58 477.65,299.94 480.27,299.56 C483.95,299.03 484.98,299.17 484.77,300.19 C484.62,300.92 485.17,301.34 486.00,301.14 C487.48,300.79 493.86,300.53 501.54,300.39 ZM 724.66 510.01 C724.56,502.50 724.06,494.98 723.13,487.50 C721.91,477.60 720.42,468.88 718.48,460.65 C719.45,464.52 720.43,468.69 721.44,473.29 C721.78,474.83 722.50,475.81 723.03,475.48 C723.56,475.15 724.04,475.47 724.10,476.19 C724.15,476.91 724.59,476.38 725.06,475.00 C725.67,473.23 725.78,473.96 725.42,477.50 C725.14,480.25 724.81,494.20 724.67,508.50 C724.67,509.01 724.66,509.51 724.66,510.01 ZM 569.94 716.61 C567.99,717.18 566.29,717.65 565.00,717.95 C559.78,719.19 554.05,721.09 552.28,722.17 C549.41,723.91 546.81,724.17 528.78,724.46 C525.30,724.51 522.00,724.54 518.85,724.54 C521.06,724.40 523.53,724.20 526.50,723.95 C541.95,722.62 556.96,720.06 569.94,716.61 ZM 677.66 568.91 L 688.50 568.32 L 674.82 568.26 C667.30,568.23 660.62,567.88 659.97,567.48 C659.12,566.95 659.13,567.40 660.03,569.13 C662.46,573.80 663.08,574.12 665.01,571.73 C666.61,569.75 668.04,569.43 677.66,568.91 ZM 519.42 626.00 L 519.50 605.01 L 519.78 621.75 C519.94,630.96 520.26,639.06 520.50,639.75 C520.97,641.10 528.63,641.34 534.10,640.55 C532.47,640.85 530.73,641.00 528.88,641.00 C523.34,641.00 523.00,641.14 523.00,643.39 C523.00,645.30 521.39,647.00 519.59,647.00 C519.45,647.00 519.37,637.55 519.42,626.00 ZM 700.71 568.79 C700.51,566.19 697.33,564.48 695.50,566.00 C694.75,566.63 692.86,567.52 691.31,567.98 C688.55,568.81 688.54,568.83 691.00,568.93 C692.38,568.99 694.11,569.42 694.86,569.89 C695.60,570.36 697.26,570.75 698.54,570.75 C700.22,570.75 700.82,570.22 700.71,568.79 ZM 402.94 330.26 C403.11,330.02 403.27,329.74 403.38,329.45 C403.75,328.48 403.57,328.15 402.89,328.57 C402.14,329.03 402.15,328.58 402.94,327.12 C403.56,325.95 403.77,325.00 403.41,325.00 C403.05,325.00 403.32,324.33 404.00,323.50 C405.32,321.91 407.50,321.39 406.57,322.89 C406.27,323.38 406.80,323.71 407.76,323.64 C408.72,323.56 409.39,324.06 409.25,324.75 C409.11,325.44 409.24,326.00 409.53,326.00 C410.38,326.00 420.36,320.88 421.85,319.68 C422.30,319.32 422.96,318.96 423.60,318.70 C422.96,318.96 422.30,319.32 421.85,319.68 C421.11,320.28 417.80,322.17 414.50,323.88 C410.17,326.12 406.46,328.15 402.94,330.26 ZM 467.22 728.60 C451.36,725.11 434.97,720.34 430.49,717.40 C429.31,716.63 428.11,716.23 427.82,716.52 C428.11,716.23 429.28,716.60 430.42,717.34 C432.74,718.85 448.94,724.40 450.50,724.22 C451.05,724.16 452.76,723.92 454.31,723.68 C455.85,723.45 457.65,723.77 458.31,724.38 C458.96,725.00 460.06,725.54 460.75,725.60 C464.46,725.90 464.98,726.10 464.75,727.16 C464.66,727.56 465.61,728.06 467.22,728.60 ZM 556.17 729.17 C559.29,728.38 560.56,727.63 561.64,726.39 C563.56,724.20 564.38,723.99 569.50,724.41 C572.22,724.63 574.45,724.52 577.36,723.89 C570.70,725.80 563.30,727.65 556.17,729.17 ZM 319.22 598.94 C316.78,593.83 314.88,589.38 314.00,586.50 C312.42,581.33 310.17,577.78 308.95,578.53 C307.46,579.45 306.62,576.13 307.72,573.69 C308.33,572.32 307.63,567.11 306.42,561.60 C309.49,574.41 313.79,586.92 319.22,598.94 ZM 426.00 414.24 C426.00,412.77 425.26,412.54 421.50,412.84 C419.03,413.04 417.23,413.57 417.51,414.02 C417.79,414.46 417.45,415.06 416.76,415.34 C416.07,415.61 417.86,415.88 420.75,415.92 C425.12,415.99 426.00,415.71 426.00,414.24 ZM 402.00 415.12 C402.00,414.63 400.99,414.01 399.75,413.75 C398.51,413.48 396.71,412.93 395.75,412.52 C394.40,411.96 394.00,412.27 394.00,413.89 C394.00,415.68 394.60,416.00 398.00,416.00 C400.20,416.00 402.00,415.60 402.00,415.12 ZM 320.18 541.25 C320.41,540.29 320.35,538.17 320.05,536.55 L 319.50 533.61 L 318.22 536.42 C316.95,539.20 317.37,543.00 318.95,543.00 C319.40,543.00 319.95,542.21 320.18,541.25 ZM 663.59 449.38 C663.17,448.28 662.56,448.16 661.15,448.92 C660.11,449.48 658.87,449.61 658.38,449.22 C657.90,448.83 658.85,450.01 660.50,451.83 C663.31,454.94 663.52,455.02 663.83,453.01 C664.01,451.82 663.90,450.19 663.59,449.38 ZM 706.94 405.80 C705.77,403.96 704.75,402.70 703.96,402.21 C702.67,401.40 702.00,401.35 702.00,402.05 C702.00,402.64 701.53,402.83 700.96,402.47 C700.38,402.12 699.26,402.37 698.46,403.04 C697.29,404.01 697.00,403.94 697.00,402.69 C697.00,401.26 700.49,399.34 702.25,399.80 C702.66,399.91 702.99,399.51 703.00,398.91 C704.35,401.19 705.67,403.49 706.94,405.80 ZM 663.77 484.48 L 663.57 482.06 L 661.24 484.25 C659.09,486.27 659.04,486.49 660.70,487.09 C663.19,488.00 664.00,487.31 663.77,484.48 ZM 551.44 430.09 C552.24,428.80 550.97,425.90 549.90,426.56 C549.41,426.86 548.54,427.99 547.97,429.06 C547.10,430.68 547.26,431.00 548.91,431.00 C549.99,431.00 551.14,430.59 551.44,430.09 ZM 456.50 716.92 C452.31,716.03 448.69,715.53 447.59,715.74 C445.87,716.07 445.02,715.84 445.21,715.10 C445.36,714.52 442.09,712.67 438.76,711.16 C444.58,713.34 450.49,715.26 456.50,716.92 ZM 647.60 545.27 C647.21,544.88 646.47,545.22 645.96,546.03 C645.27,547.11 645.03,547.16 645.02,546.19 C645.01,545.47 644.52,545.18 643.93,545.54 C643.24,545.97 643.49,546.89 644.66,548.18 C646.44,550.15 646.46,550.15 647.38,548.07 C647.90,546.92 647.99,545.66 647.60,545.27 ZM 327.99 555.98 C327.39,554.87 327.22,553.45 327.61,552.82 C328.04,552.13 327.86,551.97 327.15,552.40 C326.52,552.80 326.00,552.56 326.00,551.86 C326.00,550.91 325.72,550.88 324.85,551.75 C323.98,552.62 324.29,553.52 326.10,555.43 C329.01,558.51 329.40,558.62 327.99,555.98 ZM 640.00 538.56 C640.00,536.74 639.49,536.16 638.00,536.27 C635.57,536.46 635.53,536.82 637.65,539.17 C639.80,541.54 640.00,541.48 640.00,538.56 ZM 608.92 521.60 C609.81,520.52 609.78,520.09 608.79,519.74 C606.89,519.08 605.00,520.01 605.00,521.61 C605.00,523.41 607.42,523.40 608.92,521.60 ZM 433.55 305.50 C465.93,292.99 501.70,288.51 537.03,292.29 C534.30,292.11 532.06,292.13 530.39,292.36 C527.99,292.69 525.82,292.52 525.48,291.97 C525.15,291.43 519.66,291.00 513.05,291.00 C484.86,291.00 457.85,296.03 432.02,306.10 C432.53,305.90 433.04,305.70 433.55,305.50 ZM 412.50 415.00 C412.16,414.45 411.04,414.00 410.00,414.00 C408.96,414.00 407.84,414.45 407.50,415.00 C407.14,415.58 408.18,416.00 410.00,416.00 C411.82,416.00 412.86,415.58 412.50,415.00 ZM 719.96 556.81 C722.38,545.53 723.89,534.05 724.44,522.50 C724.02,536.71 722.99,544.31 719.96,556.81 ZM 543.57 437.03 C543.57,435.58 543.26,435.37 542.29,436.18 C541.58,436.76 541.00,437.85 541.00,438.59 C541.00,439.33 541.58,439.72 542.29,439.44 C542.99,439.17 543.57,438.09 543.57,437.03 ZM 311.16 445.68 C317.05,427.46 325.41,410.35 336.37,394.12 C325.78,410.10 317.15,427.64 311.16,445.68 ZM 703.58 419.50 C695.67,402.97 685.79,387.81 674.27,374.24 C686.18,387.90 695.23,402.06 703.58,419.50 ZM 657.91 344.77 C651.12,338.61 645.51,334.49 634.95,327.47 C630.60,324.57 626.29,321.89 621.97,319.41 C632.24,325.17 642.07,331.72 651.20,338.94 C653.00,340.36 655.32,342.39 657.91,344.77 ZM 726.88 457.16 C726.69,456.39 726.54,455.76 726.46,455.37 C724.50,446.18 719.60,432.48 714.71,421.25 C720.10,433.04 724.19,444.76 726.46,455.37 C726.54,455.75 726.69,456.38 726.88,457.16 ZM 433.98 709.30 C433.34,709.11 432.81,709.01 432.45,709.00 C431.56,709.00 425.34,705.95 418.41,702.27 C423.51,704.83 428.70,707.17 433.98,709.30 ZM 702.66 398.35 C702.36,398.20 701.89,398.21 701.36,398.42 C700.12,398.89 699.97,398.73 700.75,397.77 C701.23,397.19 700.83,395.72 699.74,393.59 C700.73,395.16 701.71,396.75 702.66,398.35 ZM 587.70 720.68 C594.29,718.15 604.59,713.62 611.58,710.25 C605.85,713.16 599.96,715.86 593.90,718.37 C592.11,719.11 590.02,719.88 587.70,720.68 ZM 385.23 342.45 C392.93,336.40 399.83,331.47 401.66,331.03 C396.39,334.25 391.41,337.72 385.23,342.45 ZM 336.61 378.09 C318.51,401.94 304.95,429.36 298.05,457.50 C304.98,429.25 318.36,402.01 336.61,378.09 ZM 689.17 378.28 C684.35,372.19 678.48,365.39 672.38,358.96 C676.42,363.14 680.18,367.22 682.95,370.50 C685.06,373.00 687.13,375.60 689.17,378.28 ZM 371.11 669.95 C358.87,658.97 349.04,647.95 339.81,634.82 C348.89,647.61 359.39,659.43 371.11,669.95 ZM 392.39 686.81 C384.46,681.45 379.15,677.17 371.11,669.95 C377.92,676.06 385.02,681.69 392.39,686.81 ZM 647.85 687.49 C655.25,681.69 663.01,675.00 668.77,669.17 C673.86,664.02 678.41,659.08 682.57,654.13 C672.28,666.49 660.68,677.63 647.85,687.49 ZM 581.26 301.57 C576.58,300.10 571.78,298.77 566.80,297.56 C563.08,296.65 559.51,295.85 556.15,295.16 C560.45,295.99 564.74,296.95 569.00,298.03 C573.09,299.07 577.18,300.25 581.26,301.57 ZM 404.95 318.73 C392.13,326.13 386.40,329.94 380.84,334.06 C382.43,332.86 384.04,331.68 385.66,330.53 C391.10,326.66 397.75,322.61 404.95,318.73 ZM 716.16 598.54 C719.32,591.52 721.47,585.82 723.51,579.05 C722.78,581.54 722.05,583.88 721.34,586.00 C720.29,589.12 718.44,593.55 716.16,598.54 ZM 542.86 636.73 C547.40,632.87 549.49,626.86 548.64,619.64 C549.53,627.13 547.40,633.04 542.86,636.73 ZM 693.28 640.16 C696.19,635.95 698.96,631.60 701.66,626.97 C699.85,630.15 698.15,632.96 696.70,635.15 C695.58,636.84 694.44,638.50 693.28,640.16 ZM 711.88 438.88 C709.55,432.61 706.81,426.26 703.58,419.50 C706.92,426.48 709.57,432.60 711.88,438.88 ZM 546.50 731.06 C545.31,731.27 544.01,731.46 542.63,731.65 C543.93,731.45 545.38,731.21 547.01,730.94 C547.98,730.77 548.88,730.62 549.72,730.47 C548.63,730.68 547.56,730.87 546.50,731.06 ZM 448.86 309.47 C448.72,309.49 448.60,309.51 448.50,309.53 C447.61,309.65 444.92,310.55 442.03,311.68 C444.92,310.55 447.61,309.65 448.50,309.52 C448.62,309.51 448.74,309.49 448.86,309.47 Z" fill="rgb(74,74,74)"/>
</g>
</svg>